<?xml version="1.0" encoding="UTF-8"?>
<!-- Generator: Adobe Illustrator 21.0.0, SVG Export Plug-In . SVG Version: 6.00 Build 0)  -->
<svg version="1.1" xmlns="http://www.w3.org/2000/svg" xmlns:xlink="http://www.w3.org/1999/xlink" x="0px" y="0px" viewBox="0 0 850.4 367" style="enable-background:new 0 0 850.4 367;" xml:space="preserve">
<style type="text/css">
	.st0{fill:#FFFFFF;}
	.st1{fill:#E2001A;}
	.st2{fill:#009036;}
</style>
<g id="WORTMARKE">
	<g>
		<g>
			<g>
				<path d="M150.9,177l-10.6-44.1H132L121.4,177h-12.6l13.4-55.1h27.9l13.4,55.1H150.9z M575.8,157l-21.2-34.6h-13.4v55.1h12.2      v-34.6h0.8l21.2,34.6h13.4v-55.1h-12.2V157H575.8z M410,133.4h17.3v44.1h12.2v-44.1h17.3v-11H410V133.4z M382,157l-21.2-34.6      h-13.4v55.1h12.2v-34.6h0.8l21.2,34.6H395v-55.1h-12.2V157H382z M330,122.4h-12.2v55.1H330V122.4z M253.5,139.3l16.9,20.9      l16.9-20.9h0.8v38.2h12.2v-55.1h-13.4l-16.5,20.5l-16.5-20.5h-13.4v55.1h12.2v-38.2H253.5z"/>
				<polygon points="541.2,227.7 541.2,189.6 529,189.6 529,244.7 542.4,244.7 558.9,224.2 575.4,244.7 588.8,244.7 588.8,189.6       576.6,189.6 576.6,227.7 575.8,227.7 558.9,206.9 542,227.7     "/>
			</g>
			<polygon points="435,224.4 413.7,189.7 400.4,189.7 400.4,244.8 412.5,244.8 412.5,210.2 413.3,210.2 434.6,244.8 448,244.8      448,189.7 435.8,189.7 435.8,224.4    "/>
		</g>
		<path d="M495.9,120c-16.8,0-30.3,13.4-30.3,29.9s13.6,29.9,30.3,29.9c16.8,0,30.3-13.4,30.3-29.9S512.7,120,495.9,120z     M495.9,168.8c-10,0-18.1-8.5-18.1-18.9s8.1-18.9,18.1-18.9c10,0,18.1,8.5,18.1,18.9S505.9,168.8,495.9,168.8z"/>
		<path d="M86.4,146.8v-0.9c2.1-0.3,6.4-4.1,6.4-9.2c0-9-9.5-14.3-17-14.3H49.6v55.1h29.9c12.7,0,19.7-8.1,19.7-16.5    C99.1,150.5,88.7,147.1,86.4,146.8z M61.8,133.4h13.7c2.8,0,4.8,2.1,4.8,4.7c0,2.6-2,4.7-4.8,4.7H61.8V133.4z M84.6,164.6    c-1.3,1.2-3.1,1.8-5.5,1.8H61.8v-12.6h17.3c2.4,0,4.2,0.6,5.5,1.8c1.3,1.2,2,2.7,2,4.5C86.5,161.9,85.9,163.4,84.6,164.6z"/>
		<path d="M513.9,208.9c0-11.5-9.2-19.3-20.7-19.3h-27.7v55.1h12.2v-16.5h13.8c1.5,2.8,7.5,13.7,9,16.5h13l-10.2-18.9    C503.3,225.8,513.9,221.6,513.9,208.9z M493.3,217.1h-15.5v-16.5h15.5c4.9,0,8.4,3.7,8.4,8.3C501.7,213.4,498.2,217.1,493.3,217.1    z"/>
	</g>
	<path d="M197.6,122.1h-20.4v55.1h20.4c17,0,28.8-12.3,28.8-27.6C226.4,134.5,214.4,122.1,197.6,122.1z M197.4,166.2h-8v-33h8   c9.8,0,16.8,7.4,16.8,16.5C214.2,158.8,207.3,166.2,197.4,166.2z"/>
</g>
<g id="BILDMARKE">
	<g>
		<g>
			<polygon class="st1" points="652.2,275.4 652.2,299.7 673.3,311.9 694.4,299.7    "/>
			<polygon class="st1" points="673.3,263.2 673.3,189.1 758.6,238.3 694.4,275.4 715.5,287.5 800.8,238.3 652.2,152.5 652.2,251         "/>
		</g>
		<g>
			<polygon class="st2" points="652.2,128.2 758.6,189.7 758.6,165.3 652.2,103.9    "/>
			<polygon class="st2" points="652.2,55.1 652.2,79.5 758.6,140.9 758.6,116.5    "/>
		</g>
	</g>
</g>
</svg>